<?xml version="1.0" encoding="UTF-8" standalone="yes"?>
<svg xmlns="http://www.w3.org/2000/svg" xmlns:xlink="http://www.w3.org/1999/xlink" width="79.100cm" height="27.575cm" version="1.1" viewBox="-2178.550 516.152 4110.731 1433.038">
  <!--
	Exported with Concepts: Smarter Sketching
	Version: 3410 on iOS 17.7
	https://concepts.app/
	-->
  <title>83BF1ED5-B6F0-4E87-8E26-128CD79A75DB</title>
  <desc>Drawing exported from Concepts: Smarter Sketching</desc>
  <defs></defs>
  <rect x="-2178.550" y="516.152" width="4110.731" height="1433.038" stroke="none" fill="white"></rect>
  <g id="Pen" opacity="1.000">
    <path id="STROKE_b7a7abf8-49b7-4364-aecc-6761dd02ce4c" opacity="1.000" fill="none" stroke="#000000" stroke-width="5.378" stroke-opacity="1.000" stroke-linecap="round" stroke-linejoin="round" d="M -106.399 587.624 Q -106.940 587.356 -105.643 578.831 Q -105.608 578.402 -105.584 585.033 Q -105.560 591.664 -105.539 595.986 Q -105.518 600.307 -105.178 606.658 Q -104.838 613.009 -102.491 620.533 L -102.400 620.533 Q -102.098 620.597 -101.261 614.970 Q -100.424 609.343 -102.828 600.668 "></path>
    <path id="STROKE_24cb78d4-75ba-4eb1-87db-bb501199ae7e" opacity="1.000" fill="none" stroke="#000000" stroke-width="5.378" stroke-opacity="1.000" stroke-linecap="round" stroke-linejoin="round" d="M -125.401 581.210 Q -125.737 581.369 -127.660 580.517 L -127.660 580.485 Q -127.374 580.478 -116.412 579.364 Q -105.451 578.249 -97.975 576.995 Q -90.499 575.741 -84.354 574.389 Q -84.491 574.389 -84.627 574.389 "></path>
    <path id="STROKE_f422e919-28a9-424b-83c9-0fa88b9190b1" opacity="1.000" fill="none" stroke="#000000" stroke-width="5.378" stroke-opacity="1.000" stroke-linecap="round" stroke-linejoin="round" d="M -67.538 600.999 Q -67.565 601.364 -71.965 600.274 Q -70.828 600.541 -66.490 599.454 Q -62.151 598.368 -59.174 596.847 Q -56.196 595.326 -54.921 594.212 Q -53.647 593.098 -53.369 592.883 Q -53.092 592.667 -52.573 591.737 Q -52.054 590.807 -53.540 589.454 Q -55.026 588.102 -57.591 587.619 Q -60.156 587.137 -61.892 587.171 Q -63.627 587.205 -65.972 588.091 Q -68.318 588.976 -70.519 590.786 Q -72.721 592.596 -74.359 594.844 Q -75.998 597.091 -76.593 598.940 Q -77.187 600.788 -77.147 601.405 Q -77.107 602.021 -77.325 604.149 Q -77.543 606.277 -75.203 607.596 Q -72.862 608.914 -69.319 609.020 Q -65.776 609.125 -63.158 608.759 Q -60.540 608.393 -56.474 606.899 Q -52.407 605.406 -49.651 604.067 Q -46.894 602.729 -44.519 600.461 Q -42.143 598.194 -41.249 595.235 Q -40.354 592.275 -40.203 590.595 Q -40.052 588.915 -40.319 587.598 Q -40.587 586.280 -41.795 585.595 Q -43.004 584.911 -43.845 584.734 Q -44.685 584.557 -46.338 584.807 Q -47.991 585.057 -48.983 586.564 Q -49.975 588.071 -50.313 589.289 Q -50.650 590.508 -50.659 591.628 Q -50.669 592.747 -48.373 594.221 Q -46.076 595.695 -40.483 597.256 Q -34.890 598.816 -32.014 599.515 Q -29.138 600.213 -27.612 600.834 Q -26.086 601.456 -24.643 602.705 Q -23.199 603.955 -24.456 605.353 Q -25.714 606.750 -29.162 608.119 Q -32.610 609.487 -36.040 609.972 Q -39.469 610.458 -41.696 610.628 Q -43.922 610.798 -45.657 609.998 Q -47.392 609.198 -48.863 605.631 "></path>
    <path id="STROKE_660b1cda-d73d-481e-af67-5543fc722468" opacity="1.000" fill="none" stroke="#000000" stroke-width="5.378" stroke-opacity="1.000" stroke-linecap="round" stroke-linejoin="round" d="M -23.557 566.716 Q -23.749 565.905 -25.015 559.627 Q -25.458 559.753 -24.176 567.714 Q -22.893 575.676 -21.168 588.335 Q -19.443 600.994 -16.616 613.508 Q -16.019 613.889 -17.393 609.148 Q -18.766 604.407 -19.222 601.745 Q -19.678 599.084 -19.806 597.886 Q -19.933 596.687 -19.660 595.220 Q -19.387 593.753 -16.489 593.365 Q -13.590 592.978 -11.465 592.752 Q -9.341 592.526 -7.893 592.240 Q -6.446 591.953 -4.354 590.933 "></path>
    <path id="STROKE_ba37b7d8-1dea-4b4b-917c-ce47fd253fac" opacity="1.000" fill="none" stroke="#000000" stroke-width="5.378" stroke-opacity="1.000" stroke-linecap="round" stroke-linejoin="round" d="M 36.821 602.526 Q 36.721 601.706 35.764 596.036 Q 35.822 596.395 36.314 598.426 Q 36.805 600.458 37.347 604.944 Q 37.888 609.431 39.799 613.445 L 39.900 613.445 Q 39.936 613.279 40.064 612.249 "></path>
    <path id="STROKE_169518e5-710b-4cab-8a73-2a4d5e218856" opacity="1.000" fill="none" stroke="#000000" stroke-width="5.378" stroke-opacity="1.000" stroke-linecap="round" stroke-linejoin="round" d="M 31.993 590.806 Q 31.822 590.471 30.821 587.952 Q 29.820 585.434 28.750 582.394 Q 28.344 583.828 30.863 585.715 "></path>
    <path id="STROKE_3b0dc566-6c57-4b61-a280-40221cd39123" opacity="1.000" fill="none" stroke="#000000" stroke-width="5.378" stroke-opacity="1.000" stroke-linecap="round" stroke-linejoin="round" d="M 58.610 599.345 Q 58.520 599.693 58.626 597.521 Q 58.732 595.349 58.472 593.596 Q 58.211 591.844 57.507 590.978 Q 56.803 590.112 55.097 589.882 Q 53.391 589.652 51.693 591.363 Q 49.996 593.074 48.593 595.937 Q 47.190 598.801 46.756 602.061 Q 46.321 605.321 46.612 607.936 Q 46.903 610.552 48.066 612.454 Q 49.230 614.357 51.851 615.253 Q 54.473 616.150 57.262 615.526 Q 60.050 614.902 62.300 612.914 Q 64.549 610.926 66.299 605.695 "></path>
    <path id="STROKE_a9b55167-85b5-485b-96cc-dae874f40ce9" opacity="1.000" fill="none" stroke="#000000" stroke-width="5.378" stroke-opacity="1.000" stroke-linecap="round" stroke-linejoin="round" d="M 72.056 594.509 Q 72.205 594.500 71.491 594.547 Q 71.352 594.483 71.188 598.082 Q 71.023 601.682 71.955 604.301 Q 72.888 606.920 73.712 608.885 Q 74.535 610.849 76.948 610.836 Q 77.763 609.954 76.283 603.786 "></path>
    <path id="STROKE_dab62006-016d-4221-bece-cc34ff8d119a" opacity="1.000" fill="none" stroke="#000000" stroke-width="5.378" stroke-opacity="1.000" stroke-linecap="round" stroke-linejoin="round" d="M 65.424 578.296 Q 65.297 578.061 64.076 576.833 Q 64.004 576.083 64.113 580.549 "></path>
    <path id="STROKE_d48aee9e-51d6-4827-a34d-856bc0adf81d" opacity="1.000" fill="none" stroke="#000000" stroke-width="5.378" stroke-opacity="1.000" stroke-linecap="round" stroke-linejoin="round" d="M 1271.597 1243.435 Q 1270.865 1238.979 1270.938 1239.975 Q 1270.677 1238.173 1270.719 1238.722 Q 1270.762 1239.272 1270.279 1233.277 Q 1270.596 1232.070 1272.848 1249.451 Q 1275.100 1266.831 1276.775 1277.046 Q 1278.450 1287.262 1280.411 1292.497 Q 1282.372 1297.732 1285.113 1300.485 Q 1285.587 1300.099 1285.982 1299.713 "></path>
    <path id="STROKE_f5f165e5-2f39-4a3e-93b1-f8b4973160a3" opacity="1.000" fill="none" stroke="#000000" stroke-width="5.378" stroke-opacity="1.000" stroke-linecap="round" stroke-linejoin="round" d="M 1240.981 1241.337 Q 1237.270 1239.687 1234.871 1238.759 Q 1232.473 1237.831 1231.625 1237.464 Q 1230.777 1237.098 1231.093 1237.200 Q 1231.408 1237.303 1230.761 1237.049 Q 1230.114 1236.796 1228.356 1235.873 Q 1226.598 1234.951 1226.900 1235.047 Q 1227.203 1235.144 1226.965 1235.007 Q 1228.943 1235.180 1251.393 1230.076 Q 1273.843 1224.971 1298.523 1220.339 Q 1299.388 1219.850 1296.679 1227.719 "></path>
    <path id="STROKE_ff894108-f780-4741-b0aa-7a22be17525f" opacity="1.000" fill="none" stroke="#000000" stroke-width="5.378" stroke-opacity="1.000" stroke-linecap="round" stroke-linejoin="round" d="M 1313.910 1263.348 Q 1312.655 1264.754 1312.883 1264.581 Q 1312.803 1264.673 1312.803 1265.078 Q 1313.492 1265.233 1318.513 1265.532 Q 1323.534 1265.831 1326.810 1264.665 Q 1330.086 1263.499 1330.777 1262.703 Q 1331.469 1261.907 1332.173 1261.091 Q 1332.877 1260.275 1333.621 1258.993 Q 1334.365 1257.712 1334.759 1256.463 Q 1335.153 1255.215 1335.233 1253.787 Q 1335.313 1252.358 1334.833 1248.721 Q 1334.354 1245.084 1330.728 1244.672 Q 1327.102 1244.259 1322.021 1244.599 Q 1316.939 1244.940 1311.241 1248.412 Q 1305.543 1251.885 1302.280 1258.241 Q 1299.017 1264.597 1299.498 1268.875 Q 1299.980 1273.154 1300.933 1276.097 Q 1301.887 1279.040 1305.085 1282.196 Q 1308.282 1285.351 1313.306 1286.276 Q 1318.330 1287.201 1320.699 1287.424 Q 1323.067 1287.646 1329.191 1286.798 Q 1335.314 1285.950 1341.807 1281.802 Q 1348.300 1277.654 1350.221 1270.539 Q 1352.142 1263.424 1352.151 1259.765 Q 1352.160 1256.105 1351.001 1253.039 Q 1349.841 1249.973 1349.582 1250.181 Q 1349.323 1250.388 1349.500 1250.374 Q 1349.677 1250.360 1349.909 1250.397 Q 1350.141 1250.434 1347.371 1250.678 Q 1344.601 1250.921 1343.991 1252.279 Q 1343.380 1253.637 1342.415 1256.264 Q 1341.451 1258.892 1341.141 1260.231 Q 1340.831 1261.571 1347.651 1265.807 Q 1354.472 1270.042 1358.194 1273.067 Q 1361.916 1276.091 1365.109 1279.621 Q 1368.302 1283.152 1369.148 1285.258 Q 1369.994 1287.364 1370.161 1289.286 Q 1370.328 1291.208 1370.346 1292.793 Q 1370.363 1294.377 1368.054 1295.575 Q 1365.745 1296.773 1362.202 1297.872 Q 1358.660 1298.971 1351.798 1296.841 Q 1344.937 1294.711 1333.670 1274.831 "></path>
    <path id="STROKE_20771df2-c108-4a0e-ae05-8ed0cfa40d5d" opacity="1.000" fill="none" stroke="#000000" stroke-width="5.378" stroke-opacity="1.000" stroke-linecap="round" stroke-linejoin="round" d="M 1369.292 1196.507 Q 1369.370 1196.662 1367.752 1195.871 Q 1366.133 1195.080 1364.971 1193.551 Q 1363.809 1192.023 1363.443 1191.607 Q 1363.078 1191.191 1363.258 1191.354 L 1363.074 1191.354 Q 1359.357 1195.954 1365.506 1218.030 Q 1371.656 1240.106 1376.115 1258.073 Q 1380.573 1276.040 1382.413 1290.732 L 1382.518 1290.732 Q 1382.428 1289.883 1381.572 1283.078 Q 1380.715 1276.273 1380.697 1271.816 Q 1380.678 1267.359 1382.235 1264.047 Q 1383.792 1260.734 1385.477 1258.865 Q 1387.163 1256.997 1388.057 1255.910 Q 1388.951 1254.824 1392.477 1252.048 "></path>
    <path id="STROKE_fde008ec-8d39-40bc-a2e8-45ef256e87c9" opacity="1.000" fill="none" stroke="#000000" stroke-width="5.378" stroke-opacity="1.000" stroke-linecap="round" stroke-linejoin="round" d="M 1487.274 1210.309 Q 1486.945 1208.745 1486.326 1191.906 Q 1486.339 1194.710 1487.166 1213.278 Q 1487.992 1231.847 1490.519 1246.541 Q 1493.046 1261.235 1494.829 1267.938 Q 1496.612 1274.641 1502.213 1279.984 Q 1503.682 1277.041 1503.346 1276.929 Q 1503.926 1274.923 1504.295 1273.690 "></path>
    <path id="STROKE_c2db27c0-f4ec-480f-8c77-c8d6da982aa9" opacity="1.000" fill="none" stroke="#000000" stroke-width="5.378" stroke-opacity="1.000" stroke-linecap="round" stroke-linejoin="round" d="M 1523.844 1248.220 Q 1528.660 1250.791 1527.955 1236.442 Q 1523.488 1233.548 1517.956 1237.191 Q 1512.424 1240.833 1510.348 1247.264 Q 1508.271 1253.694 1507.584 1259.164 Q 1506.897 1264.634 1508.537 1268.430 Q 1510.178 1272.227 1512.836 1275.591 Q 1515.493 1278.954 1519.902 1279.843 Q 1524.310 1280.732 1526.990 1280.915 Q 1529.669 1281.099 1532.672 1278.340 Q 1535.675 1275.581 1536.307 1274.662 Q 1536.939 1273.743 1538.365 1266.767 Q 1539.791 1259.792 1536.491 1252.416 L 1536.385 1252.416 Q 1536.762 1253.703 1536.229 1258.657 Q 1535.697 1263.612 1538.515 1267.475 Q 1541.334 1271.338 1545.129 1273.274 Q 1548.923 1275.210 1551.330 1275.146 Q 1553.737 1275.082 1553.911 1275.007 Q 1554.086 1274.933 1555.802 1273.887 Q 1557.518 1272.841 1556.989 1260.661 "></path>
    <path id="STROKE_49b81af3-5f11-4d8f-ae89-ded96258d870" opacity="1.000" fill="none" stroke="#000000" stroke-width="5.378" stroke-opacity="1.000" stroke-linecap="round" stroke-linejoin="round" d="M 1512.726 1207.034 Q 1510.449 1207.034 1510.908 1207.034 Q 1510.723 1207.034 1510.618 1207.034 Q 1507.159 1207.000 1530.326 1221.388 "></path>
    <path id="STROKE_dcaa11b0-95d2-4900-87e1-81c07d498481" opacity="1.000" fill="none" stroke="#000000" stroke-width="5.378" stroke-opacity="1.000" stroke-linecap="round" stroke-linejoin="round" d="M 1710.013 1255.876 Q 1711.999 1257.145 1712.655 1252.707 Q 1713.311 1248.269 1712.953 1245.562 Q 1712.596 1242.854 1711.734 1241.919 Q 1710.871 1240.983 1708.650 1240.635 Q 1706.429 1240.286 1705.173 1240.337 Q 1703.917 1240.387 1703.154 1240.945 Q 1702.391 1241.502 1701.342 1241.455 Q 1700.292 1241.409 1696.030 1246.344 Q 1691.769 1251.279 1688.976 1255.809 Q 1686.184 1260.339 1685.354 1265.865 Q 1684.525 1271.392 1685.370 1274.441 Q 1686.216 1277.489 1688.757 1279.923 Q 1691.298 1282.357 1695.102 1282.525 Q 1698.907 1282.692 1702.703 1281.557 Q 1706.500 1280.422 1710.237 1276.918 Q 1713.974 1273.414 1716.126 1251.754 Q 1713.729 1253.919 1713.548 1260.204 Q 1713.367 1266.489 1713.482 1270.872 Q 1713.598 1275.255 1715.494 1278.539 Q 1717.390 1281.823 1719.723 1282.644 Q 1722.055 1283.466 1726.772 1284.305 Q 1731.489 1285.143 1733.870 1277.853 Q 1736.251 1270.563 1736.389 1265.672 Q 1736.527 1260.781 1734.443 1259.676 Q 1732.359 1258.570 1732.652 1259.769 Q 1732.946 1260.969 1733.014 1260.855 Q 1733.082 1260.742 1732.814 1266.308 Q 1732.546 1271.875 1733.645 1276.281 Q 1734.743 1280.688 1738.395 1285.259 Q 1742.046 1289.831 1745.813 1290.242 Q 1749.580 1290.654 1751.000 1289.308 Q 1752.421 1287.961 1753.407 1286.087 Q 1754.393 1284.213 1755.375 1275.200 Q 1756.358 1266.186 1753.381 1254.330 Q 1753.687 1252.321 1753.041 1258.168 Q 1752.395 1264.015 1753.464 1271.328 Q 1754.533 1278.641 1757.475 1282.796 Q 1760.417 1286.951 1762.066 1288.255 Q 1763.716 1289.560 1767.026 1290.262 Q 1770.337 1290.964 1772.224 1290.131 Q 1774.110 1289.297 1774.571 1285.911 Q 1775.032 1282.524 1781.835 1276.340 "></path>
    <path id="STROKE_4bc3e509-34b9-433e-a574-876c4884fd88" opacity="1.000" fill="none" stroke="#000000" stroke-width="5.378" stroke-opacity="1.000" stroke-linecap="round" stroke-linejoin="round" d="M 1799.436 1255.103 Q 1798.218 1256.752 1798.057 1253.737 Q 1797.895 1250.721 1797.033 1247.772 Q 1796.170 1244.823 1795.013 1243.898 Q 1793.856 1242.973 1792.015 1242.899 Q 1790.174 1242.824 1789.182 1242.906 Q 1788.190 1242.987 1788.435 1242.997 Q 1788.681 1243.007 1788.218 1243.160 Q 1787.755 1243.313 1783.633 1246.464 Q 1779.511 1249.614 1778.557 1252.586 Q 1777.602 1255.559 1777.264 1258.075 Q 1776.925 1260.591 1778.569 1262.028 Q 1780.212 1263.465 1784.397 1264.526 Q 1788.581 1265.587 1795.547 1267.375 Q 1802.513 1269.164 1805.911 1270.439 Q 1809.309 1271.715 1811.830 1273.774 Q 1814.350 1275.834 1814.952 1278.158 Q 1815.553 1280.482 1814.005 1283.212 Q 1812.457 1285.941 1807.091 1288.489 Q 1801.724 1291.037 1797.217 1291.842 Q 1792.710 1292.647 1788.485 1292.232 Q 1784.260 1291.816 1783.306 1289.913 Q 1782.353 1288.010 1781.371 1286.854 Q 1780.390 1285.699 1786.420 1278.070 "></path>
    <path id="STROKE_458c84d9-2168-4905-a35c-f6ceefef5da1" opacity="1.000" fill="none" stroke="#000000" stroke-width="5.378" stroke-opacity="1.000" stroke-linecap="round" stroke-linejoin="round" d="M 1852.288 1246.306 Q 1847.665 1243.981 1849.311 1244.466 Q 1849.378 1245.829 1847.684 1242.116 Q 1845.991 1238.402 1841.810 1236.507 Q 1837.629 1234.612 1834.196 1234.499 Q 1830.763 1234.386 1828.311 1234.688 Q 1825.858 1234.989 1825.004 1235.551 Q 1824.149 1236.114 1823.140 1237.052 Q 1822.132 1237.989 1821.681 1239.267 Q 1821.230 1240.546 1821.175 1242.035 Q 1821.120 1243.524 1821.163 1245.453 Q 1821.206 1247.382 1829.556 1250.730 Q 1837.906 1254.077 1845.147 1256.460 Q 1852.389 1258.842 1855.677 1260.896 Q 1858.965 1262.949 1859.455 1264.833 Q 1859.945 1266.717 1860.280 1268.964 Q 1860.614 1271.212 1852.826 1273.934 Q 1845.037 1276.656 1837.846 1277.063 Q 1830.655 1277.469 1825.487 1277.350 Q 1820.319 1277.231 1816.778 1274.366 Q 1813.237 1271.500 1812.337 1266.331 Q 1811.438 1261.162 1813.602 1256.892 Q 1815.766 1252.622 1821.093 1248.993 "></path>
    <path id="STROKE_8690a488-4b72-486c-84e6-6b8727bdcb6e" opacity="1.000" fill="none" stroke="#000000" stroke-width="5.378" stroke-opacity="1.000" stroke-linecap="round" stroke-linejoin="round" d="M 1882.534 1234.418 Q 1883.412 1233.717 1880.425 1236.421 Q 1877.438 1239.125 1876.900 1244.690 Q 1876.363 1250.256 1876.179 1254.984 Q 1875.996 1259.713 1876.486 1263.510 Q 1876.976 1267.306 1878.789 1269.458 Q 1880.603 1271.611 1882.516 1271.645 Q 1884.429 1271.679 1885.986 1271.521 Q 1887.542 1271.362 1888.700 1263.532 "></path>
    <path id="STROKE_b64f5531-3455-418b-9162-24a7e2270418" opacity="1.000" fill="none" stroke="#000000" stroke-width="5.378" stroke-opacity="1.000" stroke-linecap="round" stroke-linejoin="round" d="M 1874.894 1209.720 Q 1874.937 1209.769 1873.491 1207.183 Q 1872.046 1204.598 1869.888 1202.065 Q 1869.888 1202.157 1870.678 1206.297 "></path>
    <path id="STROKE_f82108a8-e3bf-4835-aec8-d98477b3365e" opacity="1.000" fill="none" stroke="#000000" stroke-width="5.378" stroke-opacity="1.000" stroke-linecap="round" stroke-linejoin="round" d="M -2110.460 1846.368 Q -2115.072 1847.598 -2114.886 1817.070 L -2114.781 1817.070 Q -2113.350 1817.571 -2112.767 1836.156 Q -2112.185 1854.740 -2109.966 1870.263 Q -2107.748 1885.787 -2103.557 1899.001 Q -2104.461 1895.908 -2112.498 1878.350 Q -2120.534 1860.792 -2124.949 1850.918 Q -2129.364 1841.044 -2131.338 1833.337 Q -2133.312 1825.630 -2134.065 1818.302 Q -2134.817 1810.975 -2135.071 1807.299 Q -2135.325 1803.624 -2130.241 1801.991 Q -2125.157 1800.358 -2117.371 1801.581 Q -2109.584 1802.804 -2105.196 1804.722 Q -2100.807 1806.641 -2095.870 1810.268 Q -2090.932 1813.896 -2087.961 1816.824 Q -2084.990 1819.752 -2082.862 1824.881 Q -2080.733 1830.010 -2080.490 1835.838 Q -2080.246 1841.667 -2084.625 1846.298 Q -2089.005 1850.930 -2095.719 1852.472 Q -2102.434 1854.014 -2107.508 1853.391 Q -2112.582 1852.768 -2114.578 1851.033 Q -2116.574 1849.297 -2118.017 1846.878 Q -2119.460 1844.459 -2118.713 1840.832 Q -2117.967 1837.206 -2114.307 1832.565 "></path>
    <path id="STROKE_5b6e318c-5590-4d01-bc6d-fd8de3609cad" opacity="1.000" fill="none" stroke="#000000" stroke-width="5.378" stroke-opacity="1.000" stroke-linecap="round" stroke-linejoin="round" d="M -2043.644 1810.960 Q -2043.983 1812.019 -2044.387 1808.979 Q -2044.791 1805.938 -2045.990 1802.910 Q -2047.189 1799.882 -2047.867 1799.417 Q -2048.546 1798.952 -2050.470 1798.135 Q -2052.394 1797.318 -2053.752 1797.317 Q -2055.111 1797.317 -2057.882 1796.874 Q -2060.654 1796.431 -2066.530 1800.077 Q -2072.405 1803.723 -2075.837 1810.350 Q -2079.268 1816.977 -2079.830 1821.286 Q -2080.391 1825.596 -2080.702 1829.830 Q -2081.012 1834.064 -2078.491 1838.374 Q -2075.969 1842.684 -2068.054 1845.255 Q -2060.138 1847.827 -2054.029 1847.028 Q -2047.920 1846.230 -2043.524 1842.849 Q -2039.128 1839.469 -2037.466 1837.377 Q -2035.803 1835.285 -2034.570 1830.210 Q -2033.337 1825.135 -2033.126 1819.398 Q -2032.916 1813.661 -2034.896 1810.835 Q -2036.877 1808.009 -2037.992 1807.634 Q -2039.107 1807.258 -2040.536 1807.957 Q -2041.964 1808.657 -2042.115 1816.113 "></path>
    <path id="STROKE_abc79587-10fc-4611-8a25-fc05373b904e" opacity="1.000" fill="none" stroke="#000000" stroke-width="5.378" stroke-opacity="1.000" stroke-linecap="round" stroke-linejoin="round" d="M -2023.725 1813.831 Q -2022.392 1814.852 -2026.307 1795.924 Q -2026.597 1795.832 -2026.966 1795.832 Q -2027.908 1795.339 -2028.605 1803.032 Q -2029.301 1810.726 -2028.671 1817.629 Q -2028.040 1824.533 -2024.457 1829.495 Q -2020.873 1834.456 -2016.890 1836.296 Q -2012.906 1838.135 -2009.508 1837.969 Q -2006.110 1837.803 -2003.851 1834.733 Q -2001.592 1831.662 -2000.302 1822.716 Q -1999.011 1813.770 -2003.148 1802.126 Q -2004.726 1802.342 -2005.418 1809.558 Q -2006.111 1816.774 -2005.714 1822.117 Q -2005.316 1827.459 -2002.618 1830.605 Q -1999.920 1833.751 -1996.631 1834.972 Q -1993.342 1836.193 -1991.081 1835.748 Q -1988.819 1835.303 -1987.367 1834.238 Q -1985.915 1833.174 -1983.098 1828.553 "></path>
    <path id="STROKE_9df787ee-9d83-4c79-9732-66bb9b1c6b8c" opacity="1.000" fill="none" stroke="#000000" stroke-width="5.378" stroke-opacity="1.000" stroke-linecap="round" stroke-linejoin="round" d="M -1982.360 1813.610 Q -1985.481 1810.653 -1984.967 1811.200 Q -1984.453 1811.747 -1984.577 1811.488 Q -1984.702 1811.229 -1986.124 1811.404 Q -1987.545 1811.579 -1987.475 1811.732 Q -1987.404 1811.884 -1987.428 1811.915 Q -1987.453 1811.947 -1989.214 1817.590 Q -1990.976 1823.232 -1979.673 1839.485 Q -1978.805 1839.866 -1982.213 1829.844 Q -1985.621 1819.821 -1985.267 1813.537 Q -1984.912 1807.252 -1985.246 1803.081 Q -1985.580 1798.909 -1982.022 1795.437 Q -1978.464 1791.965 -1974.151 1791.643 Q -1969.839 1791.320 -1969.148 1791.418 Q -1968.458 1791.516 -1965.601 1792.773 Q -1962.743 1794.030 -1961.862 1808.273 "></path>
    <path id="STROKE_b810e84b-683d-4095-8e45-6bff9149e308" opacity="1.000" fill="none" stroke="#000000" stroke-width="5.378" stroke-opacity="1.000" stroke-linecap="round" stroke-linejoin="round" d="M -1919.338 1822.443 Q -1919.163 1819.527 -1919.048 1819.554 Q -1918.905 1816.363 -1917.408 1810.380 Q -1915.911 1804.396 -1919.171 1801.364 Q -1922.431 1798.332 -1926.807 1797.823 Q -1931.184 1797.315 -1934.940 1798.696 Q -1938.696 1800.076 -1940.086 1801.742 Q -1941.476 1803.407 -1944.583 1806.459 Q -1947.690 1809.510 -1950.114 1816.056 Q -1952.538 1822.601 -1952.370 1826.695 Q -1952.201 1830.789 -1951.617 1833.657 Q -1951.033 1836.525 -1948.258 1838.977 Q -1945.484 1841.429 -1940.705 1842.115 Q -1935.926 1842.801 -1933.428 1842.194 Q -1930.929 1841.588 -1929.412 1840.903 Q -1927.896 1840.219 -1924.248 1836.699 Q -1920.599 1833.180 -1919.116 1828.718 Q -1917.632 1824.256 -1917.172 1821.834 Q -1916.712 1819.413 -1915.976 1813.789 Q -1915.239 1808.165 -1920.681 1804.040 Q -1924.108 1806.215 -1925.280 1824.703 Q -1926.451 1843.191 -1924.286 1863.895 Q -1922.122 1884.599 -1914.859 1901.504 Q -1912.339 1903.067 -1910.504 1896.041 Q -1908.669 1889.014 -1908.799 1876.034 "></path>
    <path id="STROKE_8175584c-d355-4894-bade-2880f350c8dc" opacity="1.000" fill="none" stroke="#000000" stroke-width="5.378" stroke-opacity="1.000" stroke-linecap="round" stroke-linejoin="round" d="M -1914.753 1816.481 Q -1914.753 1813.747 -1914.753 1811.890 Q -1914.753 1810.032 -1914.753 1809.318 Q -1914.753 1808.605 -1914.753 1808.457 Q -1914.880 1808.819 -1914.030 1820.568 Q -1913.180 1832.316 -1910.709 1840.757 Q -1908.238 1849.198 -1905.635 1853.349 Q -1903.032 1857.499 -1901.164 1858.812 Q -1899.295 1860.124 -1896.841 1860.651 Q -1894.386 1861.177 -1894.829 1860.835 Q -1895.271 1860.493 -1893.521 1860.877 Q -1891.772 1861.262 -1889.126 1855.346 Q -1886.481 1849.430 -1886.144 1836.644 Q -1885.807 1823.858 -1889.855 1811.328 Q -1891.434 1813.971 -1891.367 1814.087 Q -1891.300 1814.202 -1891.205 1814.043 Q -1891.110 1813.884 -1891.284 1813.849 Q -1891.458 1813.813 -1892.365 1822.409 Q -1893.271 1831.005 -1891.620 1838.502 Q -1889.968 1846.000 -1887.196 1850.754 Q -1884.424 1855.507 -1880.987 1856.567 Q -1877.550 1857.626 -1872.440 1852.478 "></path>
    <path id="STROKE_71586a11-1667-4823-9847-4c4b4c04a235" opacity="1.000" fill="none" stroke="#000000" stroke-width="5.378" stroke-opacity="1.000" stroke-linecap="round" stroke-linejoin="round" d="M -1849.043 1812.285 Q -1851.141 1811.739 -1850.861 1811.420 Q -1852.389 1809.547 -1852.311 1809.782 Q -1852.569 1807.484 -1856.200 1807.698 Q -1859.831 1807.912 -1861.615 1808.387 Q -1863.399 1808.861 -1865.544 1810.667 Q -1867.688 1812.474 -1871.701 1817.229 Q -1875.713 1821.985 -1877.166 1827.220 Q -1878.619 1832.455 -1878.550 1835.596 Q -1878.481 1838.738 -1877.022 1842.269 Q -1875.562 1845.801 -1869.845 1849.158 Q -1864.127 1852.515 -1857.772 1853.154 Q -1851.416 1853.792 -1847.006 1852.297 Q -1842.596 1850.803 -1840.379 1847.779 Q -1838.162 1844.755 -1837.161 1839.539 Q -1836.161 1834.324 -1836.302 1829.549 Q -1836.442 1824.774 -1838.781 1820.562 Q -1841.120 1816.349 -1848.385 1817.272 Q -1848.999 1819.182 -1849.043 1824.909 "></path>
    <path id="STROKE_bfd0f815-910f-451e-bab5-5c343295922d" opacity="1.000" fill="none" stroke="#000000" stroke-width="5.378" stroke-opacity="1.000" stroke-linecap="round" stroke-linejoin="round" d="M -1834.500 1832.786 Q -1834.500 1831.963 -1834.500 1830.721 Q -1834.500 1829.480 -1834.500 1822.627 Q -1834.699 1820.096 -1833.806 1828.428 Q -1832.913 1836.760 -1830.650 1842.746 Q -1828.386 1848.733 -1825.844 1851.471 Q -1823.302 1854.209 -1820.430 1854.888 Q -1820.113 1851.090 -1821.484 1847.141 "></path>
    <path id="STROKE_01ae1003-800e-45e6-9056-3658e639ce59" opacity="1.000" fill="none" stroke="#000000" stroke-width="5.378" stroke-opacity="1.000" stroke-linecap="round" stroke-linejoin="round" d="M -1827.597 1831.608 Q -1831.435 1825.227 -1844.828 1790.458 Q -1844.828 1791.172 -1844.828 1791.195 Q -1844.828 1791.218 -1844.834 1791.139 Q -1844.840 1791.060 -1844.770 1791.555 Q -1844.699 1792.050 -1845.408 1798.298 "></path>
    <path id="STROKE_1ded25de-3ee2-458f-a04b-efbec145a79b" opacity="1.000" fill="none" stroke="#000000" stroke-width="5.378" stroke-opacity="1.000" stroke-linecap="round" stroke-linejoin="round" d="M -1762.888 1851.741 Q -1762.888 1850.931 -1762.888 1835.841 Q -1761.815 1837.157 -1759.785 1856.636 Q -1757.754 1876.115 -1743.813 1905.700 Q -1743.629 1905.700 -1743.550 1905.700 Q -1741.549 1907.028 -1748.038 1894.652 Q -1754.526 1882.276 -1760.281 1867.484 Q -1766.035 1852.693 -1768.978 1841.327 Q -1771.921 1829.962 -1772.141 1824.501 Q -1772.362 1819.042 -1772.637 1816.442 Q -1772.913 1813.843 -1771.212 1810.674 Q -1769.510 1807.505 -1765.484 1807.049 Q -1761.457 1806.592 -1755.942 1807.989 Q -1750.428 1809.385 -1744.673 1814.966 Q -1738.917 1820.546 -1736.439 1824.819 Q -1733.960 1829.091 -1732.361 1832.747 Q -1730.761 1836.402 -1730.115 1840.465 Q -1729.468 1844.528 -1729.408 1846.641 Q -1729.348 1848.755 -1729.356 1852.969 Q -1729.365 1857.183 -1735.078 1860.481 Q -1740.792 1863.779 -1747.404 1864.418 Q -1754.016 1865.057 -1758.241 1864.032 Q -1762.466 1863.007 -1766.757 1859.315 Q -1771.048 1855.623 -1769.212 1846.184 "></path>
    <path id="STROKE_359fd534-b312-4d73-980a-f0c0cef8a3c0" opacity="1.000" fill="none" stroke="#000000" stroke-width="5.378" stroke-opacity="1.000" stroke-linecap="round" stroke-linejoin="round" d="M -1707.717 1827.964 Q -1707.612 1828.075 -1707.138 1828.185 Q -1707.138 1824.782 -1707.138 1825.296 Q -1708.710 1821.295 -1710.947 1818.119 Q -1713.184 1814.944 -1717.089 1813.444 Q -1720.994 1811.943 -1724.735 1818.032 Q -1728.476 1824.121 -1729.539 1832.017 Q -1730.601 1839.914 -1729.539 1845.657 Q -1728.478 1851.400 -1725.679 1855.457 Q -1722.881 1859.514 -1717.761 1862.018 Q -1712.642 1864.522 -1708.521 1863.764 Q -1704.400 1863.006 -1702.210 1860.464 Q -1700.021 1857.921 -1698.701 1851.352 Q -1697.381 1844.783 -1697.964 1838.125 Q -1698.547 1831.467 -1700.140 1827.617 Q -1701.733 1823.768 -1703.212 1820.897 L -1703.502 1820.897 Q -1704.347 1825.560 -1704.081 1825.296 Q -1703.912 1829.743 -1703.721 1836.786 Q -1703.531 1843.829 -1700.038 1848.672 Q -1696.546 1853.515 -1692.498 1856.317 Q -1688.449 1859.119 -1683.535 1859.094 Q -1678.621 1859.068 -1677.203 1849.135 Q -1675.785 1839.202 -1675.841 1833.494 Q -1675.896 1827.786 -1677.126 1821.832 Q -1678.356 1815.879 -1686.271 1812.377 Q -1688.720 1813.690 -1690.598 1817.976 Q -1692.476 1822.262 -1693.231 1825.223 Q -1693.985 1828.183 -1692.449 1829.946 Q -1690.913 1831.709 -1689.577 1832.350 Q -1688.241 1832.992 -1687.006 1833.713 Q -1685.771 1834.435 -1685.049 1834.913 Q -1684.327 1835.392 -1683.078 1835.704 Q -1681.828 1836.016 -1674.844 1840.584 Q -1667.860 1845.151 -1663.988 1846.955 Q -1660.116 1848.758 -1659.081 1851.458 Q -1658.046 1854.157 -1657.540 1855.901 Q -1657.033 1857.646 -1660.550 1860.913 Q -1664.067 1864.181 -1670.357 1865.487 Q -1676.647 1866.792 -1680.349 1867.375 Q -1684.051 1867.958 -1689.305 1866.339 Q -1694.559 1864.721 -1701.025 1859.949 "></path>
    <path id="STROKE_b17f06c5-dea9-4b54-ad22-829a723a7e5f" opacity="1.000" fill="none" stroke="#000000" stroke-width="5.378" stroke-opacity="1.000" stroke-linecap="round" stroke-linejoin="round" d="M -1570.975 1824.136 Q -1570.870 1824.136 -1569.606 1824.136 Q -1569.606 1824.045 -1568.657 1823.676 L -1568.657 1823.584 Q -1568.578 1823.584 -1568.499 1823.584 Q -1567.619 1824.321 -1567.234 1818.892 Q -1567.632 1818.436 -1573.767 1817.287 Q -1579.901 1816.138 -1584.876 1817.888 Q -1589.852 1819.637 -1591.907 1821.403 Q -1593.964 1823.169 -1595.427 1825.430 Q -1596.890 1827.692 -1596.790 1830.253 Q -1596.690 1832.814 -1595.333 1834.778 Q -1593.977 1836.741 -1590.538 1839.725 Q -1587.099 1842.708 -1583.285 1843.966 Q -1579.471 1845.225 -1571.053 1846.652 Q -1562.635 1848.080 -1547.052 1834.884 "></path>
    <path id="STROKE_80a68e39-24b7-4e66-b546-a65883c95031" opacity="1.000" fill="none" stroke="#000000" stroke-width="5.378" stroke-opacity="1.000" stroke-linecap="round" stroke-linejoin="round" d="M -1531.139 1823.180 Q -1531.139 1818.553 -1531.139 1819.941 Q -1530.166 1817.631 -1534.384 1815.724 Q -1538.602 1813.817 -1543.022 1816.451 Q -1547.442 1819.086 -1548.939 1824.083 Q -1550.436 1829.081 -1550.489 1831.027 Q -1550.541 1832.974 -1550.255 1835.778 Q -1549.968 1838.582 -1546.046 1840.399 Q -1542.123 1842.217 -1536.085 1843.626 Q -1530.047 1845.035 -1527.294 1843.170 Q -1524.540 1841.304 -1523.526 1840.058 Q -1522.512 1838.812 -1522.038 1835.586 Q -1521.564 1832.360 -1521.439 1830.858 Q -1521.314 1829.357 -1522.146 1827.513 Q -1522.979 1825.669 -1523.756 1825.894 Q -1524.534 1826.118 -1524.737 1826.742 Q -1524.941 1827.367 -1525.625 1830.175 Q -1526.310 1832.984 -1525.425 1837.006 Q -1524.539 1841.028 -1523.484 1842.362 Q -1522.429 1843.695 -1517.193 1847.172 Q -1511.957 1850.649 -1505.002 1850.287 Q -1504.607 1849.423 -1504.317 1848.650 "></path>
    <path id="STROKE_d226b2d1-3bd2-477a-a92d-df68803213f0" opacity="1.000" fill="none" stroke="#000000" stroke-width="5.378" stroke-opacity="1.000" stroke-linecap="round" stroke-linejoin="round" d="M -1570.975 1847.693 Q -1574.375 1847.693 -1573.637 1847.693 Q -1574.032 1847.693 -1574.243 1847.693 Q -1573.458 1850.191 -1574.055 1856.761 Q -1574.652 1863.331 -1567.919 1870.881 "></path>
  </g>
</svg>